<?xml version="1.0" encoding="iso-8859-1"?>
<!-- Generator: Adobe Illustrator 19.0.0, SVG Export Plug-In . SVG Version: 6.00 Build 0)  -->
<svg version="1.1" id="Layer_1" xmlns="http://www.w3.org/2000/svg" xmlns:xlink="http://www.w3.org/1999/xlink" x="0px" y="0px"
	 viewBox="0 0 502 502" style="enable-background:new 0 0 502 502;" xml:space="preserve">
<g>
	<g>
		<polygon style="fill:#3B7BC0;" points="298.017,87.697 48.59,87.697 217.213,256.32 326.069,147.464 385.836,87.697 		"/>
		<path style="fill:#EB5989;" d="M375.714,10c-42.911,0-77.697,34.786-77.697,77.697h87.819l-59.767,59.767
			c13.463,11.195,30.767,17.93,49.645,17.93c42.911,0,77.697-34.786,77.697-77.697S418.625,10,375.714,10z"/>
	</g>
	<g>
		<path d="M180.954,177.465c-2.559,0-5.119-0.976-7.071-2.929l-45.063-45.063c-3.905-3.905-3.905-10.237,0-14.143
			c3.905-3.905,10.237-3.905,14.143,0l45.063,45.063c3.905,3.905,3.905,10.237,0,14.143
			C186.073,176.489,183.513,177.465,180.954,177.465z"/>
	</g>
	<g>
		<path d="M219.285,215.796c-2.559,0-5.119-0.976-7.071-2.929l-13.468-13.468c-3.905-3.905-3.905-10.237,0-14.143
			s10.237-3.905,14.143,0l13.468,13.468c3.905,3.905,3.905,10.237,0,14.143C224.403,214.82,221.844,215.796,219.285,215.796z"/>
	</g>
	<path d="M271.083,482h-43.87v-11c0-5.523-4.477-10-10-10s-10,4.477-10,10v11h-43.87c-5.523,0-10,4.477-10,10s4.477,10,10,10h107.74
		c5.523,0,10-4.477,10-10S276.606,482,271.083,482z"/>
	<path d="M375.714,0c-44.974,0-82.144,34.033-87.123,77.697H48.59c-4.044,0-7.691,2.437-9.239,6.173s-0.692,8.038,2.167,10.898
		l165.694,165.694v174.953c0,5.523,4.477,10,10,10s10-4.477,10-10V260.462l99.834-99.834c14.338,9.562,31.299,14.765,48.667,14.765
		c48.356,0,87.697-39.341,87.697-87.697S424.07,0,375.714,0z M361.694,97.697L217.213,242.178L72.732,97.697H361.694z
		 M375.714,155.394c-12.06,0-23.87-3.238-34.174-9.258l14.239-14.239l37.342-37.106c2.874-2.855,3.741-7.161,2.197-10.906
		c-1.544-3.745-5.195-6.188-9.245-6.188h-0.237h-77.082C313.602,45.093,341.783,20,375.714,20c37.328,0,67.697,30.369,67.697,67.697
		S413.042,155.394,375.714,155.394z"/>
</g>
<g>
</g>
<g>
</g>
<g>
</g>
<g>
</g>
<g>
</g>
<g>
</g>
<g>
</g>
<g>
</g>
<g>
</g>
<g>
</g>
<g>
</g>
<g>
</g>
<g>
</g>
<g>
</g>
<g>
</g>
</svg>
