<?xml version="1.0" encoding="iso-8859-1"?>
<!-- Generator: Adobe Illustrator 19.0.0, SVG Export Plug-In . SVG Version: 6.00 Build 0)  -->
<svg version="1.1" id="Layer_1" xmlns="http://www.w3.org/2000/svg" xmlns:xlink="http://www.w3.org/1999/xlink" x="0px" y="0px"
	 viewBox="0 0 270.753 270.753" style="enable-background:new 0 0 270.753 270.753;" xml:space="preserve">
<g>
	<path style="fill:#1D1D1B;" d="M228.088,115.591c9.685,26,8.037,56.139,0.884,82.541c-13.181,48.464-49.388,77.076-100.303,72.053
		c-52.844-5.184-85.837-40.387-91.864-92.065c-5.466-47.017,13.702-107.175,65.06-120.074c0.201-0.04,0.362,0.04,0.482,0.08
		c12.176-6.389,26.603-6.872,40.025-7.153c0.121-0.04,0.161,0,0.241,0.04c0.322-5.063,0.683-10.127,1.085-15.15
		c0.643-9.122,1.246-17.843,4.541-26.281c0.643-4.782,4.662-7.836,10.047-8.921c6.028-1.246,12.819-0.362,18.968-0.281
		c7.233,0.161,14.587-0.04,21.781,0.764c0.844,0.08,1.286,0.723,1.286,1.366c1.487,1.326,2.049,3.898,1.567,5.706
		c-0.603,2.291-2.572,3.778-4.782,4.099c-0.161,0.201-0.362,0.362-0.723,0.442c-5.144,0.844-10.408,0.844-15.632,1.085
		c-4.702,0.241-11.574-0.522-16.436,1.005c-0.12,0.161-0.161,0.321-0.322,0.402c-7.917,4.501-6.952,22.986-7.595,30.742
		c-0.161,2.09-0.281,4.179-0.362,6.309c4.099,1.005,8.238,1.005,12.337,2.733c3.657,1.487,7.354,3.496,10.087,6.389
		c0.362-0.08,0.763-0.04,1.205,0.281C199.878,76.25,219.127,91.56,228.088,115.591z M226.36,193.672
		c5.787-23.509,7.434-50.714-0.603-74.022c-8.479-24.553-26.683-39.543-47.057-54.331c-0.04,0.08-0.08,0.161-0.161,0.201
		c-12.096,8.921-33.756,15.592-51.799,13.06c-11.373-1.567-21.298-6.832-26.442-17.481c-0.04-0.04,0-0.08,0-0.121
		c-43.32,21.017-64.056,61.765-60.56,110.149c3.818,53.286,37.332,92.025,92.427,95.843c0.683,0.04,1.366,0.08,2.049,0.121
		C182.638,269.583,214.987,239.725,226.36,193.672z M198.953,7.331c0.161-1.085-0.201-1.849-0.643-2.612
		c-0.482,0.563-0.884,1.165-1.045,2.009c-0.201,1.045-0.04,2.009,0.362,2.934C198.31,9.099,198.793,8.296,198.953,7.331z
		 M173.114,10.988c7.314-0.442,14.829-1.366,22.183-1.085c-0.522-1.005-0.764-2.17-0.683-3.335c0.08-0.844,0.322-1.849,0.764-2.733
		c-11.453-0.442-36.971-3.657-44.003,4.581c0,0.08,0,0.161,0,0.241c-6.59,21.218-4.702,44.164-7.354,66.065
		c3.014-0.322,5.948-0.844,8.881-1.567c-1.286-13.422-0.08-27.206,1.728-40.547c0.844-6.269,0.683-16.155,7.314-19.048
		C165.037,10.948,169.095,11.229,173.114,10.988z M175.565,62.828c-3.536-2.21-6.832-4.421-10.89-5.787
		c-2.813-1.005-5.947-1.366-8.76-2.451c-0.241,5.988-0.322,11.935-0.643,17.923C162.585,70.463,169.497,67.168,175.565,62.828z
		 M142.452,53.947c-0.04,0-0.04,0-0.08,0c-14.025,0.723-27.125,2.049-40.427,6.872c10.649,10.971,25.438,15.11,40.186,14.065
		C141.849,67.931,142.05,60.939,142.452,53.947z"/>
	<path style="fill:#1D1D1B;" d="M226.239,136.166c1.407,3.215,1.969,6.389,1.648,9.886c-0.08,0.924-1.366,0.924-1.407,0
		c-0.161-3.175-0.643-6.309-1.487-9.363C224.833,135.966,225.918,135.483,226.239,136.166z"/>
	<path style="fill:#33AA6C;" d="M225.757,119.65c8.037,23.308,6.39,50.513,0.603,74.022c-11.373,46.053-43.722,75.911-92.146,73.419
		l0.402-7.394c0.884,0,1.688-0.683,1.326-1.728c-19.369-57.144-20.254-109.586-9.644-168.499c0.08-0.563-0.322-0.924-0.764-0.924
		l1.206-9.966c18.043,2.532,39.703-4.139,51.799-13.06c0.08-0.04,0.121-0.12,0.161-0.201
		C199.074,80.107,217.278,95.097,225.757,119.65z M227.887,146.052c0.321-3.496-0.241-6.671-1.648-9.886
		c-0.321-0.683-1.406-0.201-1.246,0.522c0.844,3.054,1.326,6.189,1.487,9.363C226.521,146.976,227.807,146.976,227.887,146.052z
		 M223.346,142.034c0.322-2.532,0-4.903-0.964-7.233c-0.362-0.884-1.768-0.563-1.447,0.402c0.723,2.21,1.045,4.501,0.964,6.831
		C221.899,142.998,223.266,142.918,223.346,142.034z M205.062,227.227c0.322-0.643-0.563-1.206-0.964-0.563
		c-2.893,4.501-6.189,8.68-10.368,12.096c-0.442,0.402,0.161,1.205,0.683,0.844C198.953,236.39,202.771,232.331,205.062,227.227z
		 M201.525,212.158c16.396-39.784,18.606-92.588-14.266-124.777c-0.964-0.924-2.21,0.402-1.407,1.406
		c30.38,37.493,23.87,78.965,12.417,122.446C197.708,213.403,200.721,214.086,201.525,212.158z M201.445,237.876
		c0.482-0.563-0.281-1.406-0.844-0.844c-2.17,2.371-4.581,4.38-7.314,6.068c-0.563,0.362-0.08,1.125,0.482,0.884
		C196.823,242.578,199.395,240.529,201.445,237.876z M190.474,111.693c0.442,0.683,1.527,0.08,1.085-0.643
		c-1.406-2.411-3.054-4.662-4.661-6.952c-0.402-0.563-1.326-0.04-0.924,0.563C187.42,107.032,188.827,109.443,190.474,111.693z
		 M190.354,105.545c0.161,0.563,1.206,0.482,1.125-0.161c-0.362-3.215-2.331-6.068-5.184-7.595
		c-0.522-0.321-0.924,0.442-0.442,0.764C188.264,100.361,189.63,102.611,190.354,105.545z M190.675,159.313
		c0.442-3.054-0.241-5.867-1.487-8.64c-0.321-0.683-1.527-0.201-1.246,0.522c0.964,2.572,1.206,5.184,1.286,7.917
		C189.269,159.876,190.555,160.157,190.675,159.313z M163.751,229.478c12.699-43.039,10.087-90.619-8.961-131.407
		c-0.442-0.844-1.929-0.241-1.607,0.683c15.471,43.079,18.566,85.314,7.314,129.8C159.933,230.683,163.148,231.567,163.751,229.478z
		 M162.103,211.555c0.281-0.964-1.165-1.326-1.487-0.402c-0.924,2.733-1.969,5.385-3.255,7.957
		c-0.322,0.643,0.522,1.125,0.924,0.563C160.013,217.141,161.259,214.488,162.103,211.555z M157.281,122.945
		c0.04-3.898-1.768-7.756-4.541-10.488c-0.321-0.322-1.005,0.161-0.683,0.563c2.331,3.054,3.496,6.269,4.059,10.087
		C156.196,123.789,157.281,123.629,157.281,122.945z M152.7,129.455c0,0.844,1.246,0.844,1.246,0c0-3.536-0.764-6.912-2.13-10.167
		c-0.241-0.643-1.286-0.362-1.045,0.281C151.976,122.785,152.579,126.08,152.7,129.455z"/>
	<path style="fill:#1D1D1B;" d="M222.382,134.8c0.964,2.331,1.286,4.702,0.964,7.233c-0.08,0.884-1.447,0.965-1.447,0
		c0.08-2.331-0.241-4.621-0.964-6.831C220.613,134.238,222.02,133.916,222.382,134.8z"/>
	<path style="fill:#1D1D1B;" d="M204.097,226.665c0.402-0.643,1.286-0.08,0.964,0.563c-2.291,5.104-6.108,9.162-10.649,12.377
		c-0.522,0.362-1.125-0.442-0.683-0.844C197.908,235.345,201.204,231.165,204.097,226.665z"/>
	<path style="fill:#1D1D1B;" d="M187.259,87.381c32.872,32.189,30.662,84.993,14.266,124.777c-0.804,1.929-3.818,1.246-3.255-0.924
		c11.453-43.481,17.963-84.952-12.417-122.446C185.049,87.783,186.295,86.457,187.259,87.381z"/>
	<path style="fill:#1D1D1B;" d="M200.601,237.033c0.563-0.563,1.326,0.281,0.844,0.844c-2.049,2.652-4.621,4.702-7.675,6.108
		c-0.563,0.241-1.045-0.522-0.482-0.884C196.02,241.413,198.431,239.403,200.601,237.033z"/>
	<path style="fill:#66C7C2;" d="M195.296,9.903c-7.354-0.281-14.869,0.643-22.183,1.085c-4.019,0.241-8.077-0.04-11.172,2.572
		c-6.631,2.893-6.47,12.779-7.314,19.048c-1.808,13.342-3.014,27.125-1.728,40.547c-2.934,0.723-5.867,1.246-8.881,1.567
		c2.652-21.901,0.764-44.847,7.354-66.065c0-0.08,0-0.161,0-0.241c7.033-8.238,32.55-5.023,44.003-4.581
		c-0.442,0.884-0.683,1.889-0.764,2.733C194.533,7.733,194.774,8.898,195.296,9.903z"/>
	<path style="fill:#1D1D1B;" d="M191.559,111.05c0.442,0.723-0.643,1.326-1.085,0.643c-1.648-2.25-3.054-4.662-4.501-7.033
		c-0.402-0.603,0.522-1.125,0.924-0.563C188.505,106.389,190.153,108.639,191.559,111.05z"/>
	<path style="fill:#1D1D1B;" d="M191.479,105.384c0.08,0.643-0.964,0.723-1.125,0.161c-0.723-2.933-2.09-5.184-4.501-6.992
		c-0.482-0.321-0.08-1.085,0.442-0.764C189.148,99.316,191.117,102.169,191.479,105.384z"/>
	<path style="fill:#1D1D1B;" d="M189.188,150.674c1.246,2.773,1.929,5.586,1.487,8.64c-0.121,0.844-1.407,0.563-1.447-0.201
		c-0.08-2.733-0.322-5.345-1.286-7.917C187.661,150.473,188.867,149.99,189.188,150.674z"/>
	<path style="fill:#E94B59;" d="M164.675,57.041c4.059,1.366,7.354,3.577,10.89,5.787c-6.068,4.34-12.98,7.635-20.294,9.685
		c0.322-5.988,0.402-11.935,0.643-17.923C158.727,55.675,161.862,56.036,164.675,57.041z"/>
	<path style="fill:#1D1D1B;" d="M154.789,98.07c19.048,40.789,21.66,88.368,8.961,131.407c-0.603,2.09-3.818,1.205-3.255-0.924
		c11.252-44.486,8.158-86.721-7.314-129.8C152.86,97.829,154.347,97.227,154.789,98.07z"/>
	<path style="fill:#1D1D1B;" d="M160.616,211.153c0.322-0.924,1.768-0.563,1.487,0.402c-0.844,2.934-2.09,5.586-3.818,8.117
		c-0.402,0.563-1.246,0.08-0.924-0.563C158.647,216.538,159.692,213.886,160.616,211.153z"/>
	<path style="fill:#1D1D1B;" d="M152.74,112.457c2.773,2.733,4.581,6.59,4.541,10.488c0,0.683-1.085,0.844-1.165,0.161
		c-0.563-3.818-1.728-7.033-4.059-10.087C151.735,112.618,152.418,112.135,152.74,112.457z"/>
	<path style="fill:#1D1D1B;" d="M153.945,129.455c0,0.844-1.246,0.844-1.246,0c-0.121-3.376-0.723-6.671-1.929-9.886
		c-0.241-0.643,0.804-0.924,1.045-0.281C153.182,122.544,153.945,125.919,153.945,129.455z"/>
	<path style="fill:#E94B59;" d="M142.372,53.947c0.04,0,0.04,0,0.08,0c-0.402,6.992-0.603,13.985-0.322,20.937
		c-14.748,1.045-29.536-3.094-40.186-14.065C115.247,55.996,128.347,54.67,142.372,53.947z"/>
	<path style="fill:#1D1D1B;" d="M135.942,257.969c0.362,1.045-0.442,1.728-1.326,1.728c-0.563,0-1.165-0.322-1.447-0.965
		c-21.138-51.799-26.281-116.177-8.278-169.664c0.121-0.362,0.362-0.522,0.643-0.522c0.442,0,0.844,0.362,0.764,0.924
		C115.689,148.383,116.573,200.825,135.942,257.969z"/>
	<path style="fill:#33AA6C;" d="M134.616,259.697l-0.402,7.394c-0.683-0.04-1.366-0.08-2.049-0.121
		c-55.095-3.818-88.609-42.557-92.427-95.843c-3.496-48.384,17.24-89.132,60.56-110.149c0,0.04-0.04,0.08,0,0.121
		c5.144,10.649,15.07,15.913,26.442,17.481l-1.206,9.966c-0.281,0-0.522,0.161-0.643,0.522
		c-18.003,53.487-12.859,117.865,8.278,169.664C133.451,259.376,134.053,259.697,134.616,259.697z M112.233,147.057
		c0-0.804-1.286-1.045-1.447-0.201c-0.563,3.215-0.683,6.47-0.884,9.725c-0.08,0.965,1.286,0.884,1.407,0
		C111.71,153.446,112.192,150.231,112.233,147.057z M110.264,140.707c0.161-0.563-0.763-1.005-1.005-0.402
		c-1.808,4.099-2.371,8.359-2.049,12.819c0.04,0.763,1.246,0.763,1.206,0C108.254,148.865,109.058,144.766,110.264,140.707z
		 M103.713,75.767c0.643-0.723-0.321-1.728-1.045-1.045c-28.773,26.362-31.385,77.076-25.116,112.882
		c0.201,1.326,2.451,1.005,2.331-0.322C76.347,148.785,77.351,106.67,103.713,75.767z M82.375,241.614
		c0.804,0.723,1.889-0.362,1.165-1.165c-2.692-3.014-5.626-5.787-8.56-8.519c-0.764-0.683-1.768,0.362-1.085,1.085
		C76.588,235.988,79.361,238.961,82.375,241.614z M77.432,241.895c1.005,0.522,1.768-0.844,0.884-1.487
		c-3.496-2.572-6.269-5.425-8.359-9.283c-0.402-0.683-1.648-0.201-1.326,0.563C70.359,235.867,73.453,239.685,77.432,241.895z
		 M68.832,90.194c0.402-0.522-0.281-1.286-0.764-0.763c-2.411,2.532-4.38,5.505-5.666,8.76c-0.201,0.522,0.603,0.844,0.884,0.362
		C64.974,95.619,66.742,92.846,68.832,90.194z M67.546,125.638c0.201-0.723-0.884-1.246-1.206-0.522
		c-1.165,2.733-1.487,5.425-1.205,8.359c0.12,1.005,1.607,1.005,1.567,0C66.542,130.822,66.903,128.21,67.546,125.638z"/>
	<path style="fill:#1D1D1B;" d="M110.786,146.856c0.161-0.844,1.447-0.603,1.447,0.201c-0.04,3.175-0.522,6.39-0.924,9.524
		c-0.12,0.884-1.487,0.965-1.407,0C110.103,153.326,110.223,150.071,110.786,146.856z"/>
	<path style="fill:#1D1D1B;" d="M109.259,140.306c0.241-0.603,1.165-0.161,1.005,0.402c-1.206,4.059-2.009,8.158-1.849,12.417
		c0.04,0.763-1.165,0.763-1.206,0C106.888,148.664,107.451,144.405,109.259,140.306z"/>
	<path style="fill:#1D1D1B;" d="M102.668,74.723c0.723-0.683,1.688,0.321,1.045,1.045c-26.362,30.903-27.366,73.017-23.83,111.515
		c0.121,1.326-2.13,1.648-2.331,0.322C71.283,151.799,73.895,101.084,102.668,74.723z"/>
	<path style="fill:#1D1D1B;" d="M83.54,240.448c0.723,0.804-0.362,1.889-1.165,1.165c-3.014-2.652-5.787-5.626-8.479-8.6
		c-0.683-0.723,0.322-1.768,1.085-1.085C77.914,234.662,80.848,237.434,83.54,240.448z"/>
	<path style="fill:#1D1D1B;" d="M78.316,240.408c0.884,0.643,0.12,2.009-0.884,1.487c-3.978-2.21-7.073-6.028-8.801-10.207
		c-0.322-0.764,0.924-1.246,1.326-0.563C72.047,234.983,74.82,237.836,78.316,240.408z"/>
	<path style="fill:#1D1D1B;" d="M68.069,89.431c0.482-0.522,1.165,0.241,0.764,0.763c-2.09,2.652-3.858,5.425-5.546,8.359
		c-0.281,0.482-1.085,0.161-0.884-0.362C63.688,94.936,65.657,91.962,68.069,89.431z"/>
	<path style="fill:#1D1D1B;" d="M66.341,125.115c0.322-0.723,1.407-0.201,1.206,0.522c-0.643,2.572-1.005,5.184-0.844,7.836
		c0.04,1.005-1.447,1.005-1.567,0C64.854,130.54,65.175,127.848,66.341,125.115z"/>
</g>
<g>
</g>
<g>
</g>
<g>
</g>
<g>
</g>
<g>
</g>
<g>
</g>
<g>
</g>
<g>
</g>
<g>
</g>
<g>
</g>
<g>
</g>
<g>
</g>
<g>
</g>
<g>
</g>
<g>
</g>
</svg>
