<?xml version="1.0" encoding="iso-8859-1"?>
<!-- Generator: Adobe Illustrator 19.0.0, SVG Export Plug-In . SVG Version: 6.00 Build 0)  -->
<svg version="1.1" id="Layer_1" xmlns="http://www.w3.org/2000/svg" xmlns:xlink="http://www.w3.org/1999/xlink" x="0px" y="0px"
	 viewBox="0 0 511.498 511.498" style="enable-background:new 0 0 511.498 511.498;" xml:space="preserve">
<g>
	<path style="fill:#FFEE58;" d="M193.98,242.298c2.8,0.8,5.6,1.2,10,1.2c17.2,0,17.2-8,34-8c17.2,0,17.2,7.6,34,7.6
		c15.2,0,16.8-8,29.2-8h0.4v256c0,5.2-2.4,12-6.4,12h-147.6c-3.6,0-5.6-6.8-5.6-12v-248.4c11.2-1.6,13.2-7.6,28-7.6
		C182.78,235.898,185.98,240.298,193.98,242.298z M277.58,323.498L277.58,323.498C277.18,323.498,277.18,323.498,277.58,323.498
		L277.58,323.498z M273.58,267.498L273.58,267.498C273.18,267.498,273.18,267.498,273.58,267.498L273.58,267.498z M257.58,307.498
		L257.58,307.498L257.58,307.498L257.58,307.498z M233.58,303.498L233.58,303.498L233.58,303.498L233.58,303.498z M213.58,403.498
		L213.58,403.498L213.58,403.498L213.58,403.498z M177.58,311.498L177.58,311.498C177.18,311.498,177.18,311.498,177.58,311.498
		L177.58,311.498z M165.58,363.498L165.58,363.498L165.58,363.498L165.58,363.498z M165.58,267.498L165.58,267.498L165.58,267.498
		L165.58,267.498z"/>
	<path style="fill:#FFEE58;" d="M301.58,71.498c-37.6,0-68,29.6-68,67.2c0,0.4,0,0.8,0,0.8c0.4,12,2.8,20.4,7.2,29.2l14.4-6.8
		c-3.2-6.4-5.2-14.4-5.6-22.4c0.4,8,2,15.2,5.6,21.6l43.2-21.6l3.2-0.8l-0.4,2.4l-17.6,47.2l-5.6,14.8c7.6,2.8,15.2,4.4,23.6,4.4
		h0.4c37.2,0,67.6-30.4,67.6-68C369.58,101.898,339.18,71.498,301.58,71.498z"/>
</g>
<path d="M272.38,247.498c-9.6,0-14.4-2.4-18.8-4.4c-4-2-7.6-3.6-15.6-3.6c-7.6,0-11.2,1.6-15.6,3.6c-4.4,2-9.2,4.4-18.8,4.4
	c-4,0-7.6-0.4-11.2-1.2c-3.2-0.8-5.6-2-7.6-2.8c-4-2-7.6-3.6-15.2-3.6c-7.6,0-11.2,1.6-15.2,3.6c-3.2,1.6-6.8,3.2-12,4
	c-2,0.4-4.4-1.2-4.4-3.2c-0.4-2,1.2-4.4,3.2-4.4c4-0.8,6.8-2,9.6-3.2c4.4-2,9.2-4.4,18.8-4.4s14.4,2.4,18.8,4.4c2,0.8,4,2,6.4,2.4
	c2.8,0.8,5.6,1.2,8.8,1.2c7.6,0,11.2-1.6,15.6-3.6c4.4-2,9.2-4.4,18.8-4.4s14.4,2.4,18.8,4.4c4,2,7.6,3.6,15.6,3.6
	c7.6,0,11.2-1.6,15.6-3.6c3.6-1.6,7.2-3.2,13.2-4c2.4-0.4,4,1.2,4.4,3.6c0.4,2-1.2,4-3.6,4.4c-4.8,0.4-7.6,2-10.8,3.2
	C286.78,245.498,281.58,247.498,272.38,247.498z"/>
<path d="M285.58,511.498h-128c-3.2,0-8.4-0.4-12.4-4.4c-4.4-4.4-7.2-9.6-7.2-15.6v-352c0-2.4,1.6-4,4-4h90.4c2.4,0,4,1.6,4,4
	s-1.6,4-4,4l0,0h-86.4v348c0,3.6,1.6,6.8,4.4,9.6c1.6,1.6,3.6,2,6.8,2h128c3.6,0,5.6-0.8,7.2-2c3.2-2.8,5.2-6,5.2-9.6v-284
	c0-2.4,1.6-4,4-4s4,1.6,4,4v284c0,6-2.8,11.2-7.6,15.6C295.18,510.298,290.78,511.498,285.58,511.498z"/>
<path d="M301.98,211.498h-0.4c-8.4,0-16.8-1.6-25.2-4.8c-2-0.8-3.2-3.2-2.4-5.2l20-54l-51.6,26c-2,0.8-4.4,0-5.2-1.6
	c-4.8-9.6-7.2-20-7.6-30.4c0-0.4,0-1.2,0-1.6c0-39.6,32.4-72,72-72s72,32.4,72,72C373.58,179.098,341.18,211.498,301.98,211.498z
	 M283.18,200.698c6,2,12.4,2.8,18.4,2.8h0.4c35.2,0,63.6-28.8,63.6-64s-28.8-64-64-64s-64,28.8-64,64c0,0.4,0,0.8,0,1.2
	c0,8.4,2,16,5.2,23.6l56.8-28.4c1.6-0.8,3.2-0.4,4.4,0.4c1.2,1.2,1.6,2.8,1.2,4.4l-0.4,1.6L283.18,200.698z"/>
<path d="M301.58,195.498c-6.8,0-13.2-1.2-19.6-3.6c-2-0.8-3.2-3.2-2.4-5.2s3.2-3.2,5.2-2.4c5.2,2,10.8,3.2,16.8,3.2
	c26.4,0,48-21.6,48-48s-21.6-48-48-48c-2.4,0-4-1.6-4-4s1.6-4,4-4c30.8,0,56,25.2,56,56S332.38,195.498,301.58,195.498z"/>
<path d="M255.18,166.698c-1.6,0-2.8-0.8-3.6-2.4c-3.6-7.2-5.6-15.2-6-23.2c0-0.4,0-1.2,0-1.6c0-19.2,9.6-36.8,26-47.2
	c2-1.2,4.4-0.8,5.6,1.2c1.2,2,0.8,4.4-1.2,5.6c-14,8.8-22,24-22,40.4c0,0.4,0,0.8,0,1.2c0.4,7.2,2,14,5.2,20c0.8,2,0,4.4-1.6,5.2
	C256.38,166.698,255.58,166.698,255.18,166.698z"/>
<path d="M193.98,491.498c-2.4,0-4-1.6-4-4v-412c0-2.4,1.6-4,4-4s4,1.6,4,4v412C197.98,489.898,196.38,491.498,193.98,491.498z"/>
<path d="M193.58,79.898c-1.2,0-2.4-0.4-3.2-1.6c-1.2-1.6-0.8-4.4,0.8-5.6l99.6-72c1.6-1.2,4.4-0.8,5.6,0.8s0.8,4.4-0.8,5.6l-99.6,72
	C195.18,79.898,194.38,79.898,193.58,79.898z"/>
<path d="M249.18,363.498c-2.4,0-4-1.6-4-4c0-1.6,0.8-3.2,2.4-3.6c0.4-0.4,1.2-0.4,1.6-0.4c2.4,0,4,1.6,4,4l0,0
	C253.18,361.898,251.58,363.498,249.18,363.498z"/>
<path d="M221.58,335.498L221.58,335.498c-2.4,0-4-1.6-4-4s1.6-4,4-4c1.6,0,3.2,1.2,3.6,2.4c0.4,0.4,0.4,1.2,0.4,1.6
	C225.58,333.898,223.58,335.498,221.58,335.498z"/>
<path d="M257.58,311.498c-2.4,0-4-1.6-4-4s1.6-4,4-4l0,0c2.4,0,4,1.6,4,4S259.98,311.498,257.58,311.498z"/>
<path d="M221.98,285.098c-1.2,0-2-0.4-2.8-1.2c-0.8-0.8-1.2-2-1.2-2.8c0-1.2,0.4-2,1.2-2.8c1.6-1.6,4-1.6,5.6,0
	c0.8,0.8,1.2,1.6,1.2,2.8c0,1.2-0.4,2-1.2,2.8C223.98,284.698,223.18,285.098,221.98,285.098z"/>
<path d="M165.58,271.498c-2.4,0-4-1.6-4-4s1.6-4,4-4l0,0c2.4,0,4,1.6,4,4S167.58,271.498,165.58,271.498z"/>
<path d="M177.58,315.498c-2.4,0-4-2-4-4s1.6-4,4-4l0,0c2.4,0,4,1.6,4,4S179.58,315.498,177.58,315.498z"/>
<path d="M233.58,307.498c-0.4,0-1.2,0-1.6-0.4c-1.6-0.8-2.4-2-2.4-3.6c0-2.4,1.6-4,4-4l0,0c1.6,0,3.2,0.8,3.6,2.4s0.4,3.2-0.8,4.4
	C235.58,307.098,234.38,307.498,233.58,307.498z"/>
<path d="M273.58,271.498c-2.4,0-4-2-4-4s1.6-4,4-4l0,0c2.4,0,4,1.6,4,4S275.58,271.498,273.58,271.498z"/>
<path d="M277.58,327.498c-2.4,0-4-2-4-4s1.6-4,4-4l0,0c2.4,0,4,1.6,4,4S279.58,327.498,277.58,327.498z"/>
<path d="M213.58,407.498c-0.4,0-0.8,0-1.6-0.4c-1.6-0.8-2.4-2-2.4-3.6c0-2.4,1.6-4,4-4l0,0c1.6,0,3.2,0.8,3.6,2.4
	c0.8,1.6,0.4,3.2-0.8,4.4C215.58,407.098,214.38,407.498,213.58,407.498z"/>
<path d="M165.58,367.498c-0.4,0-0.8,0-1.2,0c-1.6-0.4-2.8-2-2.8-4c0-2.4,1.6-4,4-4l0,0c2.4,0,4,1.6,4,4c0,1.2-0.8,2.4-1.6,3.2
	C167.18,367.098,166.38,367.498,165.58,367.498z"/>
<g>
</g>
<g>
</g>
<g>
</g>
<g>
</g>
<g>
</g>
<g>
</g>
<g>
</g>
<g>
</g>
<g>
</g>
<g>
</g>
<g>
</g>
<g>
</g>
<g>
</g>
<g>
</g>
<g>
</g>
</svg>
