<?xml version="1.0" encoding="iso-8859-1"?>
<!-- Generator: Adobe Illustrator 19.0.0, SVG Export Plug-In . SVG Version: 6.00 Build 0)  -->
<svg version="1.1" id="Layer_1" xmlns="http://www.w3.org/2000/svg" xmlns:xlink="http://www.w3.org/1999/xlink" x="0px" y="0px"
	 viewBox="0 0 480.003 480.003" style="enable-background:new 0 0 480.003 480.003;" xml:space="preserve">
<circle style="fill:#FDC567;" cx="204.002" cy="72.003" r="24"/>
<path style="fill:#D7B883;" d="M184.778,248.003c31.192,0,31.192,16,62.376,16c31.208,0,31.208-16,62.424-16
	c21.72,0,28.344,7.736,40.864,12.448l5.56-44.448l-32-64h-216l-40,64l4.128,33.008c19.704,3.48,23.76,14.992,50.248,14.992
	C153.578,264.003,153.578,248.003,184.778,248.003z"/>
<path style="fill:#FCB641;" d="M309.578,248.003c-31.208,0-31.208,16-62.424,16c-31.192,0-31.192-16-62.376-16
	c-31.2,0-31.2,16-62.4,16c-26.488,0-30.544-11.512-50.248-14.992l17.944,143.568c8.2-4.184,15.992-8.576,32.352-8.576
	c31.208,0,31.208,16,62.424,16c31.192,0,31.192-16,62.376-16c31.2,0,31.2,16,62.4,16c10.92,0,17.992-1.976,23.944-4.528
	l16.88-135.024C337.922,255.739,331.298,248.003,309.578,248.003z"/>
<path style="fill:#D7B883;" d="M247.226,384.003c-31.192,0-31.192,16-62.376,16c-31.208,0-31.208-16-62.424-16
	c-16.36,0-24.152,4.392-32.352,8.576l4.672,37.376c3,24.024,23.424,42.048,47.632,42.048h139.256
	c24.208,0,44.624-18.024,47.632-42.048l4.312-34.48c-5.96,2.552-13.032,4.528-23.952,4.528
	C278.426,400.003,278.426,384.003,247.226,384.003z"/>
<path d="M363.162,212.427l-32-64c-1.36-2.712-4.128-4.424-7.16-4.424h-216c-2.76,0-5.32,1.424-6.784,3.76l-40,64
	c-0.976,1.56-1.384,3.408-1.152,5.232l4.128,33.008l17.944,143.568l4.672,37.376c3.496,27.968,27.384,49.056,55.56,49.056h139.256
	c28.176,0,52.072-21.088,55.568-49.056l4.304-34.48l16.88-135.024l5.552-44.448C364.138,215.427,363.858,213.835,363.162,212.427z
	 M112.434,160.003h51.568v16c0,4.416,3.584,8,8,8s8-3.584,8-8v-16h139.056l28.704,57.408l-3.888,31.168
	c-0.016-0.008-0.04-0.016-0.056-0.032c-0.888-0.456-1.792-0.912-2.728-1.368c-0.456-0.224-0.936-0.44-1.4-0.664
	c-0.616-0.296-1.224-0.584-1.864-0.872c-0.56-0.248-1.168-0.488-1.752-0.736c-0.6-0.248-1.176-0.496-1.8-0.736
	c-0.656-0.248-1.368-0.48-2.056-0.712c-0.608-0.208-1.2-0.424-1.84-0.624c-0.776-0.24-1.616-0.44-2.44-0.648
	c-0.632-0.168-1.232-0.344-1.896-0.496c-0.92-0.208-1.928-0.368-2.912-0.544c-0.656-0.112-1.264-0.256-1.944-0.352
	c-1.176-0.168-2.456-0.28-3.728-0.4c-0.584-0.056-1.112-0.136-1.72-0.176c-1.952-0.144-3.984-0.216-6.16-0.216
	c-17.536,0-26.744,4.72-34.856,8.88c-7.456,3.816-13.888,7.12-27.56,7.12c-13.664,0-20.096-3.296-27.536-7.12
	c-8.12-4.16-17.32-8.88-34.848-8.88s-26.728,4.72-34.848,8.88c-7.448,3.824-13.88,7.12-27.552,7.12
	c-13.68,0-20.128-3.296-27.6-7.112c-1.216-0.616-2.472-1.256-3.776-1.888c-0.44-0.216-0.904-0.424-1.36-0.632
	c-1.008-0.472-2.056-0.928-3.144-1.384c-0.528-0.224-1.056-0.432-1.608-0.648c-1.248-0.48-2.568-0.936-3.952-1.36
	c-0.416-0.128-0.792-0.272-1.216-0.392c-0.128-0.032-0.232-0.08-0.36-0.112l-3.08-24.632L112.434,160.003z M321.322,428.963
	c-2.496,19.976-19.568,35.04-39.696,35.04h-25.2l2.016-1.344c3.68-2.448,4.672-7.416,2.216-11.096
	c-2.448-3.68-7.408-4.68-11.096-2.216l-21.984,14.656h-7.576v-16c0-4.416-3.584-8-8-8s-8,3.584-8,8v16h-5.576l-21.984-14.656
	c-3.68-2.464-8.648-1.464-11.096,2.216c-2.448,3.672-1.456,8.648,2.216,11.096l2.016,1.344H142.37
	c-20.128,0-37.192-15.064-39.688-35.04l-3.968-31.768c0.36-0.176,0.712-0.344,1.072-0.512c0.264-0.128,0.536-0.248,0.808-0.376
	c0.776-0.352,1.568-0.68,2.376-1c0.104-0.04,0.208-0.088,0.312-0.128c0.92-0.352,1.872-0.688,2.856-0.992
	c0.24-0.072,0.496-0.136,0.744-0.208c0.752-0.216,1.528-0.424,2.336-0.616c0.368-0.088,0.76-0.16,1.144-0.24
	c0.744-0.152,1.512-0.288,2.312-0.416c0.432-0.064,0.872-0.136,1.32-0.192c0.856-0.112,1.768-0.2,2.704-0.272
	c0.424-0.032,0.832-0.08,1.28-0.104c1.392-0.08,2.856-0.136,4.448-0.136c13.672,0,20.112,3.304,27.56,7.12
	c8.12,4.16,17.328,8.88,34.856,8.88s26.728-4.72,34.84-8.88c7.448-3.824,13.872-7.12,27.536-7.12s20.096,3.296,27.544,7.12
	c8.128,4.16,17.336,8.88,34.864,8.88c2.616,0,5.096-0.104,7.488-0.312c0.648-0.056,1.232-0.184,1.864-0.256
	c1.712-0.192,3.424-0.384,5.048-0.704c0.024,0,0.04-0.008,0.064-0.008L321.322,428.963z M326.226,389.675
	c-1.128,0.36-2.336,0.712-3.672,1.016c-0.344,0.08-0.736,0.136-1.096,0.208c-1.208,0.248-2.528,0.448-3.936,0.624
	c-0.52,0.064-1.04,0.128-1.592,0.176c-1.928,0.176-3.968,0.304-6.304,0.304c-13.672,0-20.104-3.304-27.552-7.12
	c-8.12-4.16-17.312-8.88-34.848-8.88s-26.728,4.72-34.84,8.88c-7.448,3.824-13.88,7.12-27.544,7.12
	c-13.672,0-20.112-3.304-27.56-7.12c-7.104-3.64-15.04-7.712-28.664-8.672c-1.944-0.136-4-0.208-6.192-0.208
	c-2.616,0-4.992,0.136-7.256,0.328c-0.688,0.056-1.328,0.144-1.992,0.216c-1.576,0.176-3.08,0.384-4.496,0.64
	c-0.608,0.112-1.216,0.216-1.792,0.336c-1.608,0.336-3.136,0.712-4.568,1.136c-0.224,0.064-0.48,0.12-0.704,0.184
	c-1.64,0.504-3.168,1.056-4.624,1.632c-0.112,0.04-0.24,0.08-0.352,0.128l-15.04-120.312c0.304,0.136,0.608,0.264,0.904,0.4
	c1.656,0.768,3.288,1.576,4.992,2.44c8.136,4.16,17.352,8.864,34.88,8.864s26.728-4.72,34.848-8.88
	c7.448-3.824,13.88-7.12,27.544-7.12s20.088,3.296,27.536,7.12c8.128,4.168,17.32,8.888,34.856,8.888s26.744-4.72,34.856-8.88
	c7.456-3.816,13.888-7.12,27.56-7.12c13.688,0,20.136,3.304,27.592,7.12c1.496,0.76,3,1.536,4.592,2.296L326.226,389.675z"/>
<path d="M140.002,288.003c-4.416,0-8,3.584-8,8v16c0,4.416,3.584,8,8,8s8-3.584,8-8v-16
	C148.002,291.587,144.418,288.003,140.002,288.003z"/>
<path d="M140.002,336.003c-4.416,0-8,3.584-8,8v8c0,4.416,3.584,8,8,8s8-3.584,8-8v-8
	C148.002,339.587,144.418,336.003,140.002,336.003z"/>
<path d="M188.002,312.003c-4.416,0-8,3.584-8,8v8c0,4.416,3.584,8,8,8s8-3.584,8-8v-8
	C196.002,315.587,192.418,312.003,188.002,312.003z"/>
<path d="M236.002,288.003c-4.424,0-8,3.584-8,8v16c0,4.416,3.576,8,8,8c4.424,0,8-3.584,8-8v-16
	C244.002,291.587,240.426,288.003,236.002,288.003z"/>
<path d="M236.002,336.003c-4.424,0-8,3.584-8,8v8c0,4.416,3.576,8,8,8c4.424,0,8-3.584,8-8v-8
	C244.002,339.587,240.426,336.003,236.002,336.003z"/>
<path d="M284.002,312.003c-4.424,0-8,3.584-8,8v8c0,4.416,3.576,8,8,8s8-3.584,8-8v-8
	C292.002,315.587,288.426,312.003,284.002,312.003z"/>
<path d="M172.002,224.003c4.416,0,8-3.584,8-8v-8c0-4.416-3.584-8-8-8s-8,3.584-8,8v8
	C164.002,220.419,167.586,224.003,172.002,224.003z"/>
<path style="fill:#E65039;" d="M148.002,152.003h-32V68.731l-80-28.728v-32l99.6,32.408c7.256,1.68,12.4,8.144,12.4,15.592V152.003z
	"/>
<path d="M138.074,32.811L38.482,0.395c-2.432-0.8-5.104-0.368-7.176,1.136c-2.08,1.504-3.304,3.912-3.304,6.472v32
	c0,3.376,2.12,6.384,5.296,7.528l74.704,26.824v77.648c0,4.416,3.584,8,8,8h32c4.416,0,8-3.584,8-8v-96
	C156.002,44.763,148.354,35.147,138.074,32.811z M72.002,44.427l8.936-13.408l14.88,4.84L86.61,49.675L72.002,44.427z
	 M44.002,19.011l21.128,6.872l-8.648,12.976l-12.48-4.488V19.011z M140.002,144.003h-16V68.731c0-3.376-2.12-6.384-5.296-7.528
	l-16.584-5.96l9.496-14.248l22.176,7.208c3.656,0.848,6.208,4.056,6.208,7.8V144.003z"/>
<path d="M233.658,45.659c3.128-3.128,3.128-8.184,0-11.312s-8.184-3.128-11.312,0l-7.632,7.632c-0.888-0.312-1.792-0.6-2.712-0.84
	v-9.136c0-4.416-3.584-8-8-8s-8,3.584-8,8v9.136c-0.92,0.24-1.824,0.528-2.712,0.84l-7.632-7.632c-3.128-3.128-8.184-3.128-11.312,0
	s-3.128,8.184,0,11.312l5.544,5.544c-4.848,5.608-7.888,12.824-7.888,20.8c0,14.864,10.24,27.288,24,30.864v49.136
	c0,4.416,3.584,8,8,8s8-3.584,8-8v-49.136c13.768-3.576,24-16,24-30.864c0-7.976-3.04-15.192-7.888-20.8L233.658,45.659z
	 M204.002,88.003c-8.824,0-16-7.176-16-16s7.176-16,16-16s16,7.176,16,16S212.826,88.003,204.002,88.003z"/>
<circle style="fill:#FDC567;" cx="348.002" cy="144.003" r="26"/>
<g>
	<ellipse style="fill:#E65039;" cx="348.002" cy="79.003" rx="17.336" ry="39"/>
	<ellipse style="fill:#E65039;" cx="348.002" cy="208.963" rx="17.336" ry="39"/>
	
		<ellipse transform="matrix(-0.7362 -0.6768 0.6768 -0.7362 397.9577 538.7687)" style="fill:#E65039;" cx="303.988" cy="191.82" rx="17.336" ry="39.001"/>
	
		<ellipse transform="matrix(-0.6768 -0.7362 0.7362 -0.6768 438.9965 385.0726)" style="fill:#E65039;" cx="304.03" cy="96.167" rx="39.001" ry="17.336"/>
	
		<ellipse transform="matrix(-0.6768 -0.7362 0.7362 -0.6768 516.081 610.2851)" style="fill:#E65039;" cx="392.012" cy="191.851" rx="39.001" ry="17.336"/>
	<ellipse style="fill:#E65039;" cx="412.962" cy="144.003" rx="39" ry="17.336"/>
	<ellipse style="fill:#E65039;" cx="283.002" cy="144.003" rx="39" ry="17.336"/>
	
		<ellipse transform="matrix(-0.7362 -0.6768 0.6768 -0.7362 615.5447 432.1838)" style="fill:#E65039;" cx="392.007" cy="96.119" rx="17.336" ry="39.001"/>
</g>
<path d="M460.002,144.003c0-16.632-23.64-25.336-47-25.336c-2.72,0-5.44,0.128-8.128,0.368c1.968-1.808,3.904-3.712,5.768-5.736
	c15.808-17.192,25.408-40.488,13.168-51.752c-12.248-11.256-35.32,0.28-51.128,17.464l-0.68,0.008c0-0.008,0-0.008,0-0.016
	c0-23.352-7.368-47-24-47s-24,23.648-24,47c0,0.008,0,0.008,0,0.016c0,0-0.672-0.008-0.68-0.008
	c-15.816-17.192-38.536-28.696-50.792-17.456c-12.24,11.256-2.808,34.552,13,51.744c1.864,2.024,3.712,3.936,5.68,5.736
	c-2.688-0.232-5.448-0.368-8.168-0.368c-23.36,0-47.024,8.704-47.024,25.336s23.632,25.336,46.992,25.336
	c2.72,0,5.432-0.128,8.12-0.368c-1.968,1.808-3.904,3.712-5.768,5.736c-15.808,17.192-25.408,40.488-13.168,51.752
	c3.376,3.096,7.52,4.464,12.088,4.464c12.008,0,27.592-9.472,39.04-21.928l0.672-0.008c0,0.008,0,0.008,0,0.016
	c0.008,23.352,7.376,47,24.008,47s24-23.648,24-47c0-0.008,0-0.008,0-0.016c0,0,0.672,0.008,0.68,0.008
	c11.456,12.456,26.696,21.928,38.704,21.928c4.568,0,8.888-1.368,12.264-4.472c12.24-11.256,2.728-34.552-13.08-51.744
	c-1.864-2.024-3.752-3.936-5.72-5.736c2.688,0.232,5.424,0.368,8.144,0.368C436.338,169.339,460.002,160.635,460.002,144.003z
	 M444.002,143.987c-0.344,2.176-10.672,9.344-31,9.344s-30.656-7.168-31-9.32c0.344-2.176,10.672-9.344,31-9.344
	S443.658,141.843,444.002,143.987z M366.002,144.003c0,9.928-8.08,18-18,18s-18-8.072-18-18s8.08-18,18-18
	S366.002,134.075,366.002,144.003z M385.13,89.835c11.928-12.984,22.736-16.768,26.576-16.768c0.592,0,1.024,0.088,1.256,0.248
	c1.376,1.728-0.344,14.192-14.104,29.152c-13.76,14.984-26.08,17.704-27.832,16.52C369.65,117.259,371.37,104.795,385.13,89.835z
	 M347.986,48.003c2.176,0.344,9.352,10.688,9.352,31s-7.168,30.656-9.32,31c-2.176-0.344-9.352-10.688-9.352-31
	S345.834,48.347,347.986,48.003z M283.01,73.339c0.248-0.168,0.688-0.264,1.296-0.264c3.888,0,14.664,3.808,26.568,16.752
	c13.76,14.96,15.48,27.424,14.128,29.128c-1.784,1.232-14.088-1.512-27.856-16.496C283.386,87.507,281.666,75.043,283.01,73.339z
	 M252.002,144.019c0.344-2.176,10.672-9.344,31-9.344s30.656,7.168,31,9.32c-0.344,2.176-10.672,9.344-31,9.344
	S252.346,146.163,252.002,144.019z M310.874,198.171c-13.776,14.984-26.088,17.728-27.832,16.52
	c-1.376-1.728,0.344-14.192,14.104-29.152c11.92-12.976,22.736-16.768,26.576-16.768c0.592,0,1.024,0.088,1.256,0.248
	C326.354,170.747,324.634,183.211,310.874,198.171z M348.018,240.003c-2.176-0.344-9.352-10.688-9.352-31s7.168-30.656,9.32-31
	c2.176,0.344,9.352,10.688,9.352,31S350.17,239.659,348.018,240.003z M412.994,214.667c-1.848,1.24-14.096-1.512-27.864-16.496
	c-13.76-14.96-15.48-27.424-14.128-29.128c0.24-0.168,0.68-0.256,1.288-0.256c3.88,0,14.672,3.808,26.568,16.752
	C412.618,200.499,414.338,212.963,412.994,214.667z"/>
<path d="M140.002,480.003h-72c-4.416,0-8-3.584-8-8s3.584-8,8-8h72c4.416,0,8,3.584,8,8S144.418,480.003,140.002,480.003z"/>
<path d="M364.002,480.003h-72c-4.424,0-8-3.584-8-8s3.576-8,8-8h72c4.424,0,8,3.584,8,8S368.426,480.003,364.002,480.003z"/>
<path d="M36.002,480.003h-8c-4.416,0-8-3.584-8-8s3.584-8,8-8h8c4.416,0,8,3.584,8,8S40.418,480.003,36.002,480.003z"/>
<path d="M404.002,480.003h-8c-4.424,0-8-3.584-8-8s3.576-8,8-8h8c4.424,0,8,3.584,8,8S408.426,480.003,404.002,480.003z"/>
<g>
</g>
<g>
</g>
<g>
</g>
<g>
</g>
<g>
</g>
<g>
</g>
<g>
</g>
<g>
</g>
<g>
</g>
<g>
</g>
<g>
</g>
<g>
</g>
<g>
</g>
<g>
</g>
<g>
</g>
</svg>
