<?xml version="1.0" encoding="iso-8859-1"?>
<!-- Generator: Adobe Illustrator 19.0.0, SVG Export Plug-In . SVG Version: 6.00 Build 0)  -->
<svg version="1.1" id="Layer_1" xmlns="http://www.w3.org/2000/svg" xmlns:xlink="http://www.w3.org/1999/xlink" x="0px" y="0px"
	 viewBox="0 0 512 512" style="enable-background:new 0 0 512 512;" xml:space="preserve">
<polygon style="fill:#2BA5B1;" points="454.987,102.894 285.586,294.924 116.183,102.894 "/>
<path style="fill:#EC6907;" d="M116.183,102.894h122.163c0-52.628-42.662-95.29-95.289-95.29s-95.289,42.662-95.289,95.29
	c0,52.626,42.662,95.287,95.289,95.287c16.888,0,32.739-4.412,46.495-12.118L116.183,102.894z"/>
<g>
	<rect x="169.69" y="496.792" style="fill:#53180F;" width="231.799" height="15.208"/>
	<path style="fill:#53180F;" d="M277.982,297.798v168.576h-77.876v15.208h170.958v-15.208h-77.875V297.798L471.835,95.29H245.669
		C241.764,42.091,197.236,0,143.058,0C86.323,0,40.165,46.158,40.165,102.894c0,56.735,46.157,102.891,102.893,102.891
		c15.495,0,30.831-3.527,44.722-10.236L277.982,297.798z M135.454,190.244c-18.475-1.594-35.328-8.94-48.758-20.237l41.735-41.735
		l7.023,7.961V190.244z M161.415,95.288l48.752-48.751c11.295,13.43,18.654,30.275,20.249,48.751H161.415z M150.662,84.534V15.552
		c18.474,1.595,35.331,8.928,48.76,20.222L150.662,84.534z M135.454,84.474L86.701,35.775c13.43-11.294,30.28-18.64,48.753-20.234
		L135.454,84.474L135.454,84.474z M124.76,95.288H55.708c1.595-18.477,8.942-35.33,20.24-48.76L124.76,95.288z M112.749,110.496
		l5.601,6.35l-42.408,42.408c-11.295-13.43-18.642-30.283-20.237-48.758H112.749z M404.139,149.039h-64.81v15.208h51.395
		L285.586,283.43l-84.101-95.334l0,0l-21.039-23.848h132.009V149.04H167.031l-33.999-38.541h112.92h192.188L404.139,149.039z
		 M150.662,190.224v-36.751l26.603,30.156C168.817,187.207,159.823,189.424,150.662,190.224z"/>
</g>
<g>
</g>
<g>
</g>
<g>
</g>
<g>
</g>
<g>
</g>
<g>
</g>
<g>
</g>
<g>
</g>
<g>
</g>
<g>
</g>
<g>
</g>
<g>
</g>
<g>
</g>
<g>
</g>
<g>
</g>
</svg>
