<?xml version="1.0" encoding="iso-8859-1"?>
<!-- Generator: Adobe Illustrator 19.0.0, SVG Export Plug-In . SVG Version: 6.00 Build 0)  -->
<svg version="1.1" id="Layer_1" xmlns="http://www.w3.org/2000/svg" xmlns:xlink="http://www.w3.org/1999/xlink" x="0px" y="0px"
	 viewBox="0 0 511.999 511.999" style="enable-background:new 0 0 511.999 511.999;" xml:space="preserve">
<path style="fill:#5EC5EA;" d="M375.743,414.205c0,35.708-28.947,64.656-64.656,64.656h-97.692
	c-35.708,0-64.656-28.947-64.656-64.656v-266.28h227.004v266.28H375.743z"/>
<path style="fill:#227AA0;" d="M348.73,511.999H176.388c-9.151,0-16.57-7.419-16.57-16.57c0-9.151,7.419-16.57,16.57-16.57h172.344
	c9.151,0,16.57,7.419,16.57,16.57C365.302,504.58,357.883,511.999,348.73,511.999z"/>
<path style="fill:#B4B4B5;" d="M244.436,434.408c-1.376,0-2.774-0.172-4.168-0.534c-8.859-2.296-14.179-11.34-11.883-20.197
	L332.374,12.413c1.316-5.077,4.957-9.231,9.817-11.202c4.861-1.967,10.366-1.521,14.845,1.207l81.591,49.709
	c7.815,4.761,10.29,14.956,5.529,22.772c-4.761,7.814-14.954,10.292-22.772,5.529l-62.529-38.094l-98.389,379.656
	C258.531,429.455,251.805,434.408,244.436,434.408z"/>
<circle style="fill:#F7DC4D;" cx="148.737" cy="147.929" r="83.316"/>
<path style="fill:#227AA0;" d="M262.241,147.924V478.86h48.846c35.708,0,64.656-28.947,64.656-64.656v-266.28H262.241z"/>
<path style="fill:#DE3205;" d="M148.741,288.31v125.894c0,35.708,28.947,64.656,64.656,64.656h97.693
	c35.708,0,64.656-28.947,64.656-64.656V288.31H148.741z"/>
<path style="fill:#9D2217;" d="M262.241,288.31v190.551h48.846c35.708,0,64.656-28.947,64.656-64.656V288.31H262.241z"/>
<path style="fill:#EDA637;" d="M148.741,64.609v83.315H65.424c0,46.014,37.301,83.315,83.315,83.315s83.315-37.301,83.315-83.315
	S194.754,64.609,148.741,64.609z"/>
<path style="fill:#E5BF2B;" d="M65.424,147.924c0,46.014,37.301,83.315,83.315,83.315v-83.315H65.424z"/>
<path style="fill:#F7DC4D;" d="M148.741,213.565c-36.194,0-65.64-29.446-65.64-65.641c0-36.194,29.446-65.64,65.64-65.64
	s65.64,29.446,65.64,65.64C214.38,184.118,184.934,213.565,148.741,213.565z M148.741,104.378
	c-24.012,0-43.546,19.535-43.546,43.546c0,24.012,19.535,43.547,43.546,43.547s43.546-19.535,43.546-43.547
	C192.287,123.913,172.752,104.378,148.741,104.378z"/>
<path style="fill:#F9ED9D;" d="M148.741,191.471c-24.012,0-43.546-19.535-43.546-43.547c0-24.011,19.534-43.546,43.546-43.546
	V82.284c-36.194,0-65.64,29.446-65.64,65.64c0,36.195,29.446,65.641,65.64,65.641V191.471z"/>
<g>
</g>
<g>
</g>
<g>
</g>
<g>
</g>
<g>
</g>
<g>
</g>
<g>
</g>
<g>
</g>
<g>
</g>
<g>
</g>
<g>
</g>
<g>
</g>
<g>
</g>
<g>
</g>
<g>
</g>
</svg>
