<?xml version="1.0" encoding="iso-8859-1"?>
<!-- Generator: Adobe Illustrator 19.1.0, SVG Export Plug-In . SVG Version: 6.00 Build 0)  -->
<svg version="1.1" id="Capa_1" xmlns="http://www.w3.org/2000/svg" xmlns:xlink="http://www.w3.org/1999/xlink" x="0px" y="0px"
	 viewBox="0 0 460.697 460.697" style="enable-background:new 0 0 460.697 460.697;" xml:space="preserve">
<g>
	<g id="XMLID_5_">
		<g>
			<path style="fill:#333333;" d="M434.618,75.617c0,10.05-3.99,19.42-11.23,26.39c-6.89,6.64-15.86,10.24-25.38,10.24
				c-0.48,0-0.96-0.01-1.44-0.03c-19.01-0.72-34.46-16.17-35.18-35.18c-0.4-10.55,3.75-20.76,11.4-28.01
				c11.88-11.26,18.7-26.67,18.7-42.27c0-2.59,1.53-4.93,3.9-5.96c2.37-1.04,5.13-0.57,7.02,1.19
				C403.728,3.207,434.618,32.387,434.618,75.617z M414.368,92.647c4.68-4.5,7.25-10.55,7.25-17.03c0-23.38-10.73-42.36-18.92-53.44
				c-3.16,13.58-10.43,26.3-20.96,36.29c-4.94,4.68-7.62,11.27-7.36,18.08c0.46,12.25,10.43,22.22,22.68,22.68
				C403.558,99.477,409.708,97.137,414.368,92.647z"/>
			<path style="fill:#D87252;" d="M421.618,75.617c0,6.48-2.57,12.53-7.25,17.03c-4.66,4.49-10.81,6.83-17.31,6.58
				c-12.25-0.46-22.22-10.43-22.68-22.68c-0.26-6.81,2.42-13.4,7.36-18.08c10.53-9.99,17.8-22.71,20.96-36.29
				C410.888,33.257,421.618,52.237,421.618,75.617z"/>
			<path style="fill:#333333;" d="M384.448,123.647c7.26,7.26,7.65,19,0.89,26.72l-70.24,80.18c-6.99,7.98-10.43,18.61-9.43,29.16
				c1.44,15.4-4,30.5-14.94,41.44l-152.32,152.33c-4.5,4.49-10.48,6.97-16.83,6.97c-6.36,0-12.33-2.48-16.83-6.97l-71.7-71.71
				c-4.5-4.49-6.97-10.47-6.97-16.83c0-6.35,2.47-12.33,6.97-16.82l152.32-152.33c10.94-10.94,26.04-16.38,41.44-14.93
				c10.55,0.99,21.18-2.45,29.16-9.44l80.18-70.23c7.73-6.77,19.46-6.38,26.72,0.88L384.448,123.647z M375.558,141.797
				c2.27-2.59,2.14-6.52-0.3-8.95l-21.58-21.59c-2.44-2.43-6.37-2.56-8.96-0.29l-3.82,3.34l31.31,31.31L375.558,141.797z
				 M305.318,221.987l58.31-66.57l-4.05-4.05l-113.23,133.41c-1.23,1.46-3.05,2.3-4.95,2.3c-0.06,0-0.11,0-0.16,0l-30.75-0.75
				c-2.15-0.06-4.14-1.17-5.3-2.98c-1.17-1.81-1.37-4.08-0.53-6.06l18.75-44.25c0.35-0.82,0.87-1.56,1.52-2.18l109.94-104.19
				l-3.77-3.77l-66.57,58.3c-10.65,9.33-24.83,13.93-38.94,12.6c-1.22-0.11-2.44-0.17-3.66-0.17c-10.23,0-20.04,4.03-27.36,11.35
				l-152.33,152.33c-4.21,4.21-4.21,11.06,0,15.27l71.7,71.7c4.21,4.21,11.06,4.21,15.27,0l152.33-152.32
				c8.19-8.19,12.27-19.5,11.18-31.03C291.398,246.827,295.988,232.637,305.318,221.987z M238.448,273.997l111.9-131.85l-6.29-6.29
				l-109.21,103.51l-14.49,34.19L238.448,273.997z"/>
			<path style="fill:#EAC93F;" d="M375.258,132.847c2.44,2.43,2.57,6.36,0.3,8.95l-3.35,3.82l-31.31-31.31l3.82-3.34
				c2.59-2.27,6.52-2.14,8.96,0.29L375.258,132.847z"/>
			<path style="fill:#8AD1D6;" d="M363.628,155.417l-58.31,66.57c-9.33,10.65-13.92,24.84-12.6,38.94
				c1.09,11.53-2.99,22.84-11.18,31.03l-152.33,152.32c-4.21,4.21-11.06,4.21-15.27,0l-71.7-71.7c-4.21-4.21-4.21-11.06,0-15.27
				l152.33-152.33c7.32-7.32,17.13-11.35,27.36-11.35c1.22,0,2.44,0.06,3.66,0.17c14.11,1.33,28.29-3.27,38.94-12.6l66.57-58.3
				l3.77,3.77l-109.94,104.19c-0.65,0.62-1.17,1.36-1.52,2.18l-18.75,44.25c-0.84,1.98-0.64,4.25,0.53,6.06
				c1.16,1.81,3.15,2.92,5.3,2.98l30.75,0.75c0.05,0,0.1,0,0.16,0c1.9,0,3.72-0.84,4.95-2.3l113.23-133.41L363.628,155.417z
				 M239.358,321.407c1.78-1.78,2.37-4.43,1.52-6.8c-0.86-2.37-3-4.03-5.51-4.27c-6.23-0.59-9.86-2.25-14.07-4.18
				c-5.72-2.62-12.21-5.59-24.54-5.59c-12.34,0-18.82,2.97-24.54,5.59c-5.18,2.37-9.64,4.41-19.15,4.41
				c-9.5,0-13.97-2.04-19.13-4.41c-4.8-2.19-10.23-4.68-19.21-5.39c-1.9-0.14-3.76,0.54-5.11,1.89l-57.7,57.69
				c-1.21,1.22-1.9,2.87-1.9,4.59c0,1.73,0.69,3.38,1.9,4.6l65.06,65.05c1.27,1.27,2.94,1.9,4.6,1.9c1.66,0,3.33-0.63,4.6-1.9
				L239.358,321.407z"/>
			<polygon style="fill:#EAC93F;" points="350.348,142.147 238.448,273.997 220.358,273.557 234.848,239.367 344.058,135.857 			"/>
			<path style="fill:#443B15;" d="M240.878,314.607c0.85,2.37,0.26,5.02-1.52,6.8l-113.18,113.18c-1.27,1.27-2.94,1.9-4.6,1.9
				c-1.66,0-3.33-0.63-4.6-1.9l-65.06-65.05c-1.21-1.22-1.9-2.87-1.9-4.6c0-1.72,0.69-3.37,1.9-4.59l57.7-57.69
				c1.35-1.35,3.21-2.03,5.11-1.89c8.98,0.71,14.41,3.2,19.21,5.39c5.16,2.37,9.63,4.41,19.13,4.41c9.51,0,13.97-2.04,19.15-4.41
				c5.72-2.62,12.2-5.59,24.54-5.59c12.33,0,18.82,2.97,24.54,5.59c4.21,1.93,7.84,3.59,14.07,4.18
				C237.878,310.577,240.018,312.237,240.878,314.607z M121.578,420.797l100.28-100.28c-2.2-0.81-4.13-1.7-5.97-2.54
				c-5.17-2.36-9.63-4.41-19.13-4.41s-13.97,2.05-19.13,4.41c-5.73,2.62-12.22,5.59-24.56,5.59s-18.82-2.97-24.55-5.59
				c-3.69-1.69-6.95-3.18-11.91-3.92l-50.9,50.88L121.578,420.797z"/>
			<path style="fill:#EAC93F;" d="M221.858,320.517l-100.28,100.28l-55.87-55.86l50.9-50.88c4.96,0.74,8.22,2.23,11.91,3.92
				c5.73,2.62,12.21,5.59,24.55,5.59s18.83-2.97,24.56-5.59c5.16-2.36,9.63-4.41,19.13-4.41s13.96,2.05,19.13,4.41
				C217.728,318.817,219.658,319.707,221.858,320.517z"/>
		</g>
		<g>
		</g>
	</g>
</g>
<g>
</g>
<g>
</g>
<g>
</g>
<g>
</g>
<g>
</g>
<g>
</g>
<g>
</g>
<g>
</g>
<g>
</g>
<g>
</g>
<g>
</g>
<g>
</g>
<g>
</g>
<g>
</g>
<g>
</g>
</svg>
